<svg xmlns="http://www.w3.org/2000/svg" viewBox="0 0 760 190" width="760" height="190" font-family="Geist, ui-sans-serif, -apple-system, BlinkMacSystemFont, 'Segoe UI', Helvetica, Arial, sans-serif" role="img"><rect width="760" height="190" fill="none"/><text x="0.0" y="22.0" font-size="16" fill="#24292f" font-weight="600" text-anchor="start">What happens when you click download</text><text x="0.0" y="42.0" font-size="12.5" fill="#57606a" font-weight="400" text-anchor="start">The parts that normally require a terminal are bundled and pre-configured.</text><rect x="0.0" y="84" width="170.5" height="62" rx="8" fill="#f6f8fa" stroke="#d0d7de" stroke-width="1"/><text x="85.2" y="108.0" font-size="13" fill="#24292f" font-weight="600" text-anchor="middle">Browser add-on</text><text x="85.2" y="126.0" font-size="11" fill="#57606a" font-weight="400" text-anchor="middle">detects the video</text><rect x="196.5" y="84" width="170.5" height="62" rx="8" fill="#f6f8fa" stroke="#d0d7de" stroke-width="1"/><text x="281.8" y="108.0" font-size="13" fill="#24292f" font-weight="600" text-anchor="middle">yt-dlp</text><text x="281.8" y="126.0" font-size="11" fill="#57606a" font-weight="400" text-anchor="middle">fetches the streams</text><line x1="173.5" y1="115.0" x2="187.5" y2="115.0" stroke="#8c959f" stroke-width="1.5"/><path d="M186.5,111.0 L193.5,115.0 L186.5,119.0" fill="none" stroke="#8c959f" stroke-width="1.5" stroke-linejoin="round" stroke-linecap="round"/><rect x="393.0" y="84" width="170.5" height="62" rx="8" fill="#f6f8fa" stroke="#d0d7de" stroke-width="1"/><text x="478.2" y="108.0" font-size="13" fill="#24292f" font-weight="600" text-anchor="middle">ffmpeg</text><text x="478.2" y="126.0" font-size="11" fill="#57606a" font-weight="400" text-anchor="middle">muxes to MP4</text><line x1="370.0" y1="115.0" x2="384.0" y2="115.0" stroke="#8c959f" stroke-width="1.5"/><path d="M383.0,111.0 L390.0,115.0 L383.0,119.0" fill="none" stroke="#8c959f" stroke-width="1.5" stroke-linejoin="round" stroke-linecap="round"/><rect x="589.5" y="84" width="170.5" height="62" rx="8" fill="#f6f8fa" stroke="#0969da" stroke-width="1.5"/><text x="674.8" y="108.0" font-size="13" fill="#24292f" font-weight="600" text-anchor="middle">Your disk</text><text x="674.8" y="126.0" font-size="11" fill="#57606a" font-weight="400" text-anchor="middle">one file, playable</text><line x1="566.5" y1="115.0" x2="580.5" y2="115.0" stroke="#8c959f" stroke-width="1.5"/><path d="M579.5,111.0 L586.5,115.0 L579.5,119.0" fill="none" stroke="#8c959f" stroke-width="1.5" stroke-linejoin="round" stroke-linecap="round"/></svg>